<svg id="svg" version="1.1" xmlns="http://www.w3.org/2000/svg" xmlns:xlink="http://www.w3.org/1999/xlink" width="400" height="189.43574102315264" viewBox="0, 0, 400,189.43574102315264"><g id="svgg"><path id="path0" d="M306.833 49.277 C 305.871 49.406,304.708 49.553,304.250 49.604 C 303.792 49.656,303.345 49.765,303.258 49.849 C 303.171 49.932,302.782 50.000,302.393 50.000 C 302.004 50.000,301.645 50.067,301.594 50.149 C 301.544 50.231,301.220 50.332,300.876 50.373 C 300.140 50.461,296.916 51.448,294.667 52.274 C 292.138 53.203,284.506 57.164,284.000 57.810 C 283.954 57.869,283.792 57.992,283.640 58.083 C 280.514 59.969,274.871 65.095,272.082 68.583 C 271.350 69.500,270.663 70.342,270.558 70.454 C 270.148 70.890,267.519 74.972,266.986 76.000 C 266.677 76.596,266.381 77.121,266.328 77.167 C 265.921 77.517,264.000 82.030,264.000 82.636 C 264.000 82.899,263.846 83.557,263.658 84.099 C 262.037 88.769,261.179 94.365,261.423 98.667 C 261.499 99.996,261.543 101.665,261.522 102.375 C 261.498 103.190,261.548 103.667,261.658 103.667 C 261.757 103.667,261.833 104.026,261.833 104.490 C 261.833 104.943,261.908 105.360,262.000 105.417 C 262.092 105.473,262.167 105.679,262.167 105.873 C 262.167 106.208,262.388 107.019,262.679 107.750 C 262.752 107.933,262.972 108.571,263.169 109.167 C 263.508 110.197,265.425 114.324,265.646 114.500 C 265.704 114.546,265.847 114.771,265.965 115.000 C 269.542 121.957,279.535 128.336,289.333 129.918 C 289.654 129.970,290.292 130.076,290.750 130.153 C 292.079 130.378,300.097 130.062,302.589 129.686 C 309.308 128.675,316.012 126.296,321.446 122.995 C 322.025 122.642,322.668 122.331,322.875 122.302 C 323.443 122.223,327.977 119.051,329.007 118.011 C 329.240 117.776,329.720 117.365,330.074 117.098 C 332.871 114.983,338.722 108.037,340.475 104.750 C 340.671 104.383,341.057 103.708,341.333 103.250 C 342.470 101.365,343.792 98.382,344.878 95.250 C 345.545 93.329,345.667 92.910,345.667 92.540 C 345.667 92.345,345.742 92.140,345.833 92.083 C 345.925 92.027,346.000 91.700,346.000 91.357 C 346.000 91.014,346.068 90.662,346.151 90.575 C 347.313 89.354,347.310 75.346,346.147 74.092 C 346.066 74.005,346.000 73.690,346.000 73.393 C 346.000 73.096,345.925 72.807,345.833 72.750 C 345.742 72.693,345.667 72.431,345.667 72.167 C 345.667 71.902,345.592 71.640,345.500 71.583 C 345.408 71.527,345.333 71.312,345.333 71.107 C 345.333 70.901,345.267 70.662,345.187 70.575 C 345.106 70.488,344.947 70.117,344.833 69.750 C 343.099 64.186,337.443 57.561,331.318 53.921 C 329.306 52.726,324.434 50.667,323.616 50.667 C 323.471 50.667,323.312 50.600,323.261 50.518 C 323.174 50.377,322.774 50.283,321.375 50.073 C 321.031 50.021,320.600 49.914,320.417 49.833 C 320.069 49.681,319.919 49.656,316.917 49.256 C 314.604 48.947,309.207 48.959,306.833 49.277 M315.352 66.673 C 316.963 67.216,319.512 69.047,319.490 69.645 C 319.481 69.876,313.630 74.636,313.141 74.810 C 313.049 74.843,312.773 74.678,312.528 74.444 C 310.176 72.190,304.907 74.626,306.077 77.426 C 306.640 78.775,307.593 78.796,310.606 77.522 C 318.803 74.059,322.923 73.987,325.979 77.254 C 330.372 81.950,329.000 88.541,322.658 93.206 C 316.025 98.084,310.444 98.335,306.186 93.945 C 305.241 92.971,305.129 93.132,308.726 90.284 C 312.131 87.589,312.056 87.626,312.714 88.323 C 315.653 91.438,322.436 88.260,320.525 84.664 C 319.596 82.916,318.013 82.889,313.833 84.550 C 306.397 87.504,302.031 86.935,299.538 82.687 C 296.688 77.829,299.828 71.987,307.514 67.851 C 310.190 66.411,313.221 65.955,315.352 66.673 M293.741 83.626 C 295.202 85.711,297.557 89.067,298.973 91.083 C 304.978 99.636,305.337 103.950,300.430 108.555 C 294.989 113.661,289.005 114.264,284.602 110.152 C 282.719 108.393,282.730 108.535,284.357 107.029 C 285.117 106.326,286.522 105.021,287.480 104.130 L 289.220 102.510 290.189 103.567 C 292.050 105.598,293.708 105.695,294.954 103.846 C 296.018 102.269,295.945 102.143,285.620 87.757 C 284.702 86.478,283.918 85.305,283.878 85.152 C 283.817 84.918,290.588 79.869,291.000 79.840 C 291.046 79.837,292.279 81.541,293.741 83.626 " stroke="none" fill="#040404" fill-rule="evenodd"></path><path id="path1" d="M230.833 45.500 C 230.696 45.589,230.007 45.663,229.302 45.664 C 228.596 45.666,227.973 45.742,227.917 45.833 C 227.860 45.925,227.467 46.000,227.044 46.000 C 226.620 46.000,226.043 46.070,225.762 46.155 C 225.480 46.241,224.500 46.518,223.583 46.772 C 220.855 47.527,217.398 49.018,217.194 49.528 C 217.164 49.604,217.064 49.667,216.973 49.667 C 215.976 49.667,211.899 54.144,210.750 56.500 C 210.415 57.188,210.072 57.880,209.987 58.039 C 209.903 58.199,209.833 58.480,209.833 58.664 C 209.833 58.849,209.758 59.000,209.667 59.000 C 209.575 59.000,209.500 59.262,209.500 59.583 C 209.500 59.904,209.425 60.167,209.333 60.167 C 209.242 60.167,209.167 60.537,209.167 60.990 C 209.167 61.443,209.092 61.860,209.000 61.917 C 208.901 61.978,208.833 63.054,208.833 64.583 C 208.833 66.113,208.901 67.189,209.000 67.250 C 209.092 67.307,209.167 67.682,209.167 68.083 C 209.167 68.485,209.242 68.860,209.333 68.917 C 209.425 68.973,209.500 69.204,209.500 69.429 C 209.500 69.654,209.568 69.968,209.652 70.127 C 209.735 70.286,210.033 70.923,210.315 71.541 C 212.043 75.342,214.991 78.103,219.826 80.450 C 221.067 81.053,222.281 81.647,222.523 81.771 C 223.619 82.333,228.755 83.870,232.167 84.656 C 236.686 85.698,237.867 86.005,238.075 86.191 C 238.162 86.269,238.401 86.333,238.607 86.333 C 238.812 86.333,239.027 86.408,239.083 86.500 C 239.140 86.592,239.365 86.667,239.583 86.667 C 239.802 86.667,240.027 86.742,240.083 86.833 C 240.140 86.925,240.332 87.000,240.510 87.000 C 240.688 87.000,240.833 87.067,240.833 87.149 C 240.833 87.230,241.015 87.343,241.237 87.398 C 241.727 87.521,243.866 88.935,244.045 89.255 C 244.116 89.381,244.270 89.581,244.387 89.700 C 245.488 90.817,245.788 93.702,244.966 95.250 C 244.169 96.750,241.853 98.667,240.839 98.667 C 240.663 98.667,240.479 98.732,240.430 98.811 C 240.090 99.361,233.576 99.361,233.236 98.811 C 233.187 98.732,232.968 98.667,232.750 98.667 C 232.532 98.667,232.307 98.592,232.250 98.500 C 232.193 98.408,232.001 98.333,231.823 98.333 C 231.646 98.333,231.500 98.258,231.500 98.167 C 231.500 98.075,231.420 98.000,231.322 98.000 C 230.742 98.000,228.638 96.104,227.734 94.767 C 227.093 93.819,226.269 91.435,225.961 89.639 C 225.850 88.991,225.677 88.429,225.577 88.391 C 225.327 88.295,206.961 89.462,206.612 89.595 C 205.786 89.912,207.863 98.863,208.987 99.833 C 209.040 99.879,209.194 100.142,209.330 100.417 C 212.234 106.329,217.784 110.159,225.502 111.578 C 229.533 112.319,240.707 112.859,241.228 112.338 C 241.323 112.244,241.685 112.167,242.034 112.167 C 245.034 112.167,253.417 109.887,253.806 108.965 C 253.836 108.893,254.005 108.833,254.181 108.833 C 254.356 108.833,254.500 108.758,254.500 108.667 C 254.500 108.575,254.578 108.500,254.674 108.500 C 255.415 108.500,260.003 104.559,261.093 102.986 L 261.526 102.362 261.331 99.786 C 260.963 94.924,261.911 88.032,263.502 83.995 C 264.693 80.973,260.397 75.895,254.167 72.962 C 253.204 72.509,252.286 72.070,252.127 71.986 C 251.968 71.902,251.693 71.833,251.516 71.833 C 251.339 71.833,251.169 71.766,251.139 71.685 C 251.062 71.479,246.783 70.116,243.667 69.306 C 240.503 68.483,239.927 68.344,237.625 67.847 C 230.551 66.320,228.567 65.382,227.894 63.247 C 226.500 58.824,234.000 56.045,239.624 58.900 C 241.280 59.740,243.333 62.247,243.333 63.429 C 243.333 63.560,243.408 63.667,243.500 63.667 C 243.592 63.667,243.667 63.929,243.667 64.250 C 243.667 64.571,243.742 64.833,243.833 64.833 C 243.925 64.833,244.000 65.091,244.000 65.407 C 244.000 66.198,243.265 66.183,253.667 65.606 L 263.083 65.083 263.139 64.333 C 263.283 62.389,261.709 57.388,260.160 54.871 C 259.436 53.695,256.925 50.905,255.994 50.243 C 252.390 47.679,247.690 46.023,243.167 45.724 C 242.479 45.679,241.845 45.572,241.758 45.487 C 241.543 45.278,231.158 45.290,230.833 45.500 M4.875 46.444 C 4.709 46.511,4.667 53.164,4.667 78.931 L 4.667 111.333 14.917 111.333 L 25.167 111.333 25.167 98.250 L 25.167 85.167 26.465 85.167 C 30.469 85.167,32.427 86.747,35.343 92.333 C 35.654 92.929,35.952 93.454,36.004 93.500 C 36.056 93.546,36.305 93.996,36.556 94.500 C 36.808 95.004,37.082 95.529,37.165 95.667 C 37.249 95.804,37.895 97.004,38.602 98.333 C 39.309 99.662,40.092 101.125,40.343 101.583 C 40.593 102.042,41.543 103.804,42.453 105.500 C 43.364 107.196,44.452 109.221,44.872 110.000 L 45.636 111.417 57.235 111.459 C 65.269 111.489,68.833 111.448,68.833 111.327 C 68.833 111.230,68.483 110.499,68.054 109.701 C 67.625 108.903,66.739 107.200,66.084 105.917 C 63.668 101.180,60.770 95.552,60.204 94.500 C 59.884 93.904,59.419 93.038,59.170 92.575 C 57.650 89.737,54.828 86.281,52.910 84.908 C 51.893 84.180,49.607 83.000,49.213 83.000 C 49.096 83.000,49.000 82.925,49.000 82.833 C 49.000 82.742,49.131 82.667,49.291 82.667 C 50.268 82.667,54.259 80.898,56.222 79.594 C 58.547 78.051,61.214 74.591,62.268 71.750 C 62.506 71.108,62.768 70.453,62.850 70.294 C 62.933 70.135,63.000 69.783,63.000 69.512 C 63.000 69.241,63.075 68.973,63.167 68.917 C 63.258 68.860,63.333 68.260,63.333 67.583 C 63.333 66.907,63.408 66.307,63.500 66.250 C 63.710 66.120,63.721 63.622,63.512 63.408 C 63.427 63.321,63.322 62.650,63.279 61.917 C 63.194 60.472,63.058 59.606,62.835 59.083 C 62.757 58.900,62.490 58.188,62.242 57.500 C 59.887 50.986,54.768 47.625,46.000 46.836 C 44.854 46.733,43.274 46.578,42.489 46.491 C 41.039 46.331,5.266 46.286,4.875 46.444 M35.083 60.000 C 35.140 60.092,35.777 60.167,36.500 60.167 C 37.223 60.167,37.860 60.242,37.917 60.333 C 37.973 60.425,38.241 60.500,38.512 60.500 C 38.783 60.500,39.135 60.566,39.294 60.647 C 39.453 60.728,39.806 60.897,40.078 61.022 C 43.882 62.773,43.680 69.640,39.778 71.248 C 39.396 71.405,38.953 71.602,38.794 71.684 C 38.635 71.766,38.245 71.833,37.929 71.833 C 37.612 71.833,37.307 71.908,37.250 72.000 C 37.193 72.092,36.743 72.167,36.250 72.167 C 35.757 72.167,35.307 72.242,35.250 72.333 C 35.185 72.438,33.304 72.500,30.157 72.500 L 25.167 72.500 25.167 66.167 L 25.167 59.833 30.073 59.833 C 33.165 59.833,35.018 59.895,35.083 60.000 M310.250 66.894 C 302.261 69.525,297.091 76.416,299.206 81.615 C 301.067 86.189,305.481 87.332,312.167 84.973 C 313.221 84.601,314.796 84.046,315.667 83.739 C 320.218 82.134,322.886 85.247,319.616 88.347 C 317.470 90.382,315.055 90.455,312.710 88.554 C 312.250 88.180,311.926 88.028,311.780 88.116 C 311.092 88.529,305.667 92.926,305.667 93.071 C 305.667 93.879,309.320 96.219,311.410 96.748 C 316.899 98.139,326.688 91.708,328.082 85.795 C 328.929 82.203,327.459 78.166,324.618 76.280 C 321.542 74.239,318.054 74.603,310.500 77.755 C 306.970 79.228,304.896 78.373,305.992 75.897 C 307.163 73.248,310.241 72.494,312.617 74.272 L 313.151 74.672 316.242 72.223 C 319.809 69.397,319.584 69.763,318.409 68.689 C 316.170 66.643,313.078 65.962,310.250 66.894 M287.500 82.443 C 285.621 83.768,284.059 84.920,284.029 85.004 C 284.000 85.088,286.317 88.440,289.180 92.453 C 295.706 101.605,295.964 102.083,295.242 103.685 C 294.226 105.937,291.610 105.744,289.709 103.276 C 289.232 102.656,289.446 102.517,286.090 105.640 L 283.165 108.363 283.488 108.817 C 287.310 114.185,295.344 113.782,300.780 107.951 C 304.399 104.069,304.577 100.244,301.387 94.941 C 300.817 93.995,291.012 79.979,290.946 80.017 C 290.930 80.026,289.379 81.118,287.500 82.443 M26.083 122.099 C 21.251 122.459,14.965 123.710,14.694 124.366 C 14.664 124.440,14.532 124.500,14.401 124.500 C 14.269 124.500,14.032 124.565,13.873 124.645 C 13.714 124.725,13.096 125.035,12.500 125.334 C 10.285 126.444,7.784 128.520,6.289 130.489 C 5.901 130.999,5.546 131.454,5.500 131.500 C 4.950 132.047,3.523 135.214,3.129 136.760 C 2.537 139.085,2.585 143.969,3.221 146.048 C 4.663 150.765,8.455 154.843,13.667 157.282 C 15.723 158.244,16.564 158.584,18.671 159.301 C 20.003 159.755,21.525 160.223,22.054 160.341 C 22.583 160.460,23.054 160.619,23.101 160.695 C 23.148 160.771,23.402 160.833,23.667 160.833 C 23.931 160.833,24.188 160.900,24.239 160.982 C 24.326 161.122,24.755 161.211,26.458 161.439 C 26.848 161.491,27.167 161.601,27.167 161.683 C 27.167 161.766,27.335 161.834,27.542 161.834 C 28.639 161.835,34.090 163.529,35.782 164.394 C 38.796 165.935,40.061 169.137,38.763 171.939 C 36.251 177.360,25.676 177.346,21.937 171.917 C 21.435 171.187,20.500 169.288,20.500 168.996 C 20.500 168.826,20.433 168.645,20.352 168.595 C 20.270 168.544,20.156 168.221,20.097 167.877 C 20.039 167.532,19.929 166.875,19.854 166.417 C 19.619 164.992,19.753 165.062,17.370 165.118 C 16.204 165.146,14.650 165.244,13.917 165.336 C 12.666 165.493,2.056 166.170,0.875 166.168 L 0.333 166.167 0.333 167.503 C 0.333 168.829,0.890 171.938,1.181 172.242 C 1.265 172.329,1.333 172.568,1.333 172.773 C 1.333 172.979,1.408 173.193,1.500 173.250 C 1.592 173.307,1.667 173.500,1.667 173.679 C 1.667 173.858,1.734 174.135,1.816 174.294 C 1.898 174.453,2.299 175.296,2.708 176.167 C 4.989 181.028,8.701 184.716,13.083 186.476 C 13.817 186.770,14.547 187.084,14.706 187.172 C 14.865 187.261,15.180 187.333,15.405 187.333 C 15.630 187.333,15.860 187.408,15.917 187.500 C 15.973 187.592,16.236 187.667,16.500 187.667 C 16.764 187.667,17.022 187.734,17.072 187.816 C 17.123 187.898,17.446 188.006,17.791 188.056 C 18.135 188.107,19.242 188.311,20.250 188.509 C 23.981 189.244,36.428 189.166,39.833 188.387 C 40.429 188.251,41.161 188.100,41.460 188.051 C 41.759 188.003,42.044 187.896,42.095 187.815 C 42.145 187.733,42.351 187.667,42.552 187.667 C 43.875 187.667,49.534 184.951,50.754 183.731 C 50.973 183.512,51.204 183.333,51.268 183.333 C 51.443 183.333,53.145 181.698,53.957 180.750 C 54.350 180.292,54.820 179.751,55.002 179.548 C 55.184 179.345,55.333 179.101,55.333 179.006 C 55.333 178.911,55.392 178.833,55.465 178.833 C 55.537 178.833,55.852 178.412,56.164 177.897 C 56.800 176.847,56.631 176.809,57.750 178.246 C 59.326 180.269,61.300 182.281,62.569 183.157 C 62.760 183.289,62.954 183.441,63.000 183.495 C 63.783 184.415,69.636 187.333,70.697 187.333 C 70.853 187.333,71.027 187.408,71.083 187.500 C 71.140 187.592,71.440 187.667,71.750 187.667 C 72.060 187.667,72.355 187.734,72.406 187.816 C 72.456 187.898,72.780 188.004,73.124 188.052 C 73.468 188.099,74.125 188.223,74.583 188.327 C 78.753 189.271,89.989 189.271,93.670 188.327 C 94.081 188.222,94.661 188.097,94.960 188.050 C 95.259 188.002,95.544 187.896,95.595 187.815 C 95.645 187.733,95.902 187.667,96.167 187.667 C 96.431 187.667,96.693 187.592,96.750 187.500 C 96.807 187.408,97.000 187.333,97.179 187.333 C 97.358 187.333,97.635 187.260,97.794 187.171 C 97.953 187.082,98.806 186.678,99.690 186.274 C 101.318 185.530,103.667 184.114,103.667 183.877 C 103.667 183.806,103.886 183.651,104.155 183.532 C 104.902 183.201,108.301 179.576,109.349 177.993 C 110.366 176.456,112.000 173.427,112.000 173.079 C 112.000 172.959,112.064 172.836,112.143 172.806 C 112.559 172.643,114.343 166.766,114.057 166.500 C 113.980 166.429,113.467 166.246,112.917 166.094 C 111.541 165.714,108.666 164.835,108.200 164.651 C 107.990 164.568,107.640 164.500,107.423 164.500 C 107.205 164.500,107.003 164.439,106.972 164.365 C 106.942 164.291,106.242 164.037,105.417 163.799 C 104.592 163.562,102.251 162.873,100.215 162.267 C 98.179 161.662,96.445 161.167,96.361 161.167 C 96.276 161.167,96.044 161.823,95.843 162.625 C 95.055 165.778,93.468 168.987,91.833 170.731 C 91.171 171.438,89.019 172.833,88.591 172.833 C 88.460 172.833,88.307 172.908,88.250 173.000 C 88.193 173.092,87.941 173.167,87.690 173.167 C 87.439 173.167,87.162 173.235,87.075 173.319 C 86.580 173.797,80.601 173.793,80.092 173.315 C 80.005 173.234,79.767 173.167,79.564 173.167 C 78.779 173.167,76.209 171.606,75.196 170.514 C 74.545 169.813,73.167 167.772,73.167 167.510 C 73.167 167.410,73.080 167.161,72.974 166.956 C 72.553 166.142,72.500 165.989,72.500 165.595 C 72.500 165.370,72.433 165.145,72.351 165.094 C 72.167 164.980,71.739 162.633,71.507 160.465 C 71.033 156.040,71.558 147.470,72.356 146.592 C 72.435 146.505,72.500 146.265,72.500 146.060 C 72.500 145.854,72.575 145.640,72.667 145.583 C 72.758 145.527,72.833 145.297,72.833 145.073 C 72.833 144.850,72.908 144.667,73.000 144.667 C 73.092 144.667,73.167 144.550,73.167 144.408 C 73.167 143.657,75.612 140.622,77.259 139.329 C 81.232 136.211,88.446 136.815,92.251 140.586 C 93.575 141.898,94.301 143.056,94.993 144.956 C 95.618 146.675,94.793 146.717,104.667 144.465 C 106.271 144.099,107.883 143.762,108.250 143.716 C 108.617 143.670,108.988 143.565,109.075 143.483 C 109.162 143.401,109.514 143.333,109.857 143.333 C 110.200 143.333,110.527 143.258,110.583 143.167 C 110.640 143.075,110.941 143.000,111.252 143.000 C 111.563 143.000,111.990 142.930,112.200 142.845 C 112.411 142.760,112.790 142.646,113.042 142.592 C 113.343 142.527,113.500 142.387,113.500 142.183 C 113.500 141.736,112.316 138.667,112.144 138.667 C 112.065 138.667,112.000 138.479,112.000 138.250 C 112.000 138.021,111.925 137.833,111.833 137.833 C 111.742 137.833,111.667 137.690,111.667 137.514 C 111.667 137.338,111.610 137.169,111.542 137.139 C 111.473 137.108,111.192 136.634,110.917 136.084 C 108.740 131.735,104.830 127.698,100.610 125.443 C 99.982 125.108,99.364 124.833,99.235 124.833 C 99.106 124.833,99.000 124.758,99.000 124.667 C 99.000 124.575,98.819 124.500,98.597 124.500 C 98.376 124.500,98.169 124.438,98.139 124.361 C 98.065 124.178,95.058 123.232,93.583 122.930 C 85.606 121.291,75.070 121.913,69.167 124.371 C 68.938 124.467,68.600 124.599,68.417 124.665 C 66.812 125.243,62.949 127.486,61.718 128.552 C 61.461 128.776,60.837 129.318,60.333 129.757 C 59.166 130.773,57.537 132.600,56.516 134.035 C 55.752 135.111,55.333 135.292,55.333 134.548 C 55.333 134.427,55.267 134.199,55.186 134.039 C 55.105 133.880,54.936 133.526,54.811 133.252 C 53.229 129.794,48.083 124.833,46.077 124.833 C 45.943 124.833,45.833 124.758,45.833 124.667 C 45.833 124.575,45.652 124.500,45.431 124.500 C 45.209 124.500,45.003 124.439,44.972 124.365 C 44.796 123.936,40.610 122.869,37.333 122.417 C 35.505 122.165,28.032 121.953,26.083 122.099 M223.833 122.249 C 221.336 122.553,219.437 122.932,217.466 123.519 C 216.522 123.800,215.581 124.069,215.375 124.118 C 215.169 124.166,215.000 124.272,215.000 124.353 C 215.000 124.434,214.813 124.500,214.583 124.500 C 214.354 124.500,214.167 124.575,214.167 124.667 C 214.167 124.758,214.059 124.833,213.927 124.833 C 213.585 124.833,210.617 126.362,209.322 127.204 C 205.685 129.571,202.038 133.614,199.964 137.580 L 199.177 139.083 199.172 131.040 L 199.167 122.997 188.958 123.040 L 178.750 123.083 178.707 134.375 L 178.664 145.667 167.999 145.667 L 157.333 145.667 157.333 134.332 L 157.333 122.997 147.208 123.040 L 137.083 123.083 137.041 155.542 L 136.999 188.000 147.166 188.000 L 157.333 188.000 157.333 175.000 L 157.333 162.000 168.000 162.000 L 178.667 162.000 178.667 175.000 L 178.667 188.000 188.917 188.000 L 199.167 188.000 199.171 180.042 L 199.175 172.083 199.856 173.333 C 200.231 174.021,200.623 174.751,200.727 174.957 C 200.831 175.163,200.973 175.331,201.042 175.332 C 201.110 175.333,201.167 175.415,201.167 175.516 C 201.167 176.368,205.766 181.414,207.917 182.921 C 208.558 183.371,209.121 183.790,209.167 183.853 C 209.609 184.459,215.817 187.333,216.686 187.333 C 216.848 187.333,217.027 187.408,217.083 187.500 C 217.140 187.592,217.440 187.667,217.750 187.667 C 218.060 187.667,218.355 187.734,218.406 187.816 C 218.456 187.898,218.780 188.003,219.124 188.050 C 219.468 188.098,220.275 188.248,220.917 188.384 C 224.540 189.153,235.190 189.229,238.667 188.510 C 239.629 188.311,240.661 188.106,240.960 188.056 C 241.259 188.005,241.544 187.896,241.595 187.815 C 241.645 187.733,241.944 187.667,242.260 187.667 C 242.575 187.667,242.833 187.592,242.833 187.500 C 242.833 187.408,243.022 187.333,243.252 187.333 C 243.483 187.333,243.801 187.265,243.961 187.181 C 244.120 187.097,245.000 186.717,245.917 186.336 C 247.812 185.550,250.182 184.299,250.496 183.921 C 250.612 183.781,250.776 183.667,250.861 183.667 C 250.945 183.667,251.105 183.590,251.215 183.497 C 251.326 183.403,252.026 182.844,252.772 182.254 C 258.624 177.618,262.005 170.861,263.196 161.417 C 263.580 158.373,263.412 149.794,262.919 147.250 C 261.830 141.631,260.709 138.697,258.174 134.835 C 255.266 130.405,250.756 126.764,245.583 124.669 C 245.400 124.595,244.987 124.420,244.667 124.280 C 240.381 122.414,230.438 121.445,223.833 122.249 M321.583 123.058 C 313.801 127.833,304.850 130.327,295.476 130.332 L 292.703 130.333 291.633 131.483 C 288.571 134.776,286.548 138.465,285.089 143.417 C 284.846 144.242,284.576 145.147,284.490 145.428 C 284.404 145.710,284.333 146.212,284.333 146.544 C 284.333 146.875,284.258 147.193,284.167 147.250 C 284.075 147.307,284.000 147.784,284.000 148.310 C 284.000 148.836,283.920 149.346,283.823 149.444 C 283.555 149.712,283.431 157.691,283.660 159.917 C 283.764 160.925,283.889 162.200,283.939 162.750 C 283.988 163.300,284.097 163.821,284.181 163.908 C 284.265 163.995,284.333 164.328,284.333 164.647 C 284.333 164.965,284.405 165.457,284.492 165.738 C 284.580 166.020,284.989 167.337,285.402 168.667 C 287.315 174.832,291.195 180.221,296.083 183.502 C 296.542 183.810,296.954 184.113,297.000 184.176 C 297.180 184.424,300.002 185.826,301.500 186.412 C 302.371 186.753,303.214 187.100,303.373 187.182 C 303.532 187.265,303.809 187.333,303.988 187.333 C 304.167 187.333,304.360 187.408,304.417 187.500 C 304.473 187.592,304.815 187.667,305.177 187.667 C 305.538 187.667,305.833 187.734,305.833 187.816 C 305.833 187.898,306.115 188.006,306.458 188.056 C 306.802 188.106,307.946 188.317,309.000 188.524 C 311.926 189.099,323.342 189.099,326.000 188.525 C 326.962 188.317,328.031 188.106,328.375 188.056 C 328.719 188.006,329.000 187.898,329.000 187.816 C 329.000 187.734,329.226 187.667,329.502 187.667 C 329.779 187.667,330.135 187.601,330.294 187.520 C 330.453 187.440,330.883 187.279,331.250 187.164 C 333.359 186.497,338.000 184.186,338.000 183.802 C 338.000 183.727,338.095 183.667,338.210 183.667 C 339.666 183.667,345.296 177.270,347.284 173.357 L 348.167 171.620 348.167 179.810 L 348.167 188.000 373.917 188.000 L 399.667 188.000 399.667 179.833 L 399.667 171.667 384.251 171.667 L 368.834 171.667 368.792 147.375 L 368.750 123.083 358.594 123.040 C 350.580 123.006,348.410 123.042,348.305 123.207 C 348.232 123.322,348.171 127.049,348.169 131.488 L 348.167 139.559 347.415 138.015 C 345.669 134.428,343.140 131.304,339.666 128.442 C 338.279 127.300,333.931 124.833,333.305 124.833 C 333.137 124.833,333.000 124.758,333.000 124.667 C 333.000 124.575,332.813 124.500,332.583 124.500 C 332.354 124.500,332.167 124.434,332.167 124.353 C 332.167 124.272,331.998 124.164,331.792 124.113 C 331.585 124.061,330.629 123.789,329.667 123.506 C 325.216 122.200,323.167 122.086,321.583 123.058 M31.417 134.833 C 31.473 134.925,31.740 135.000,32.010 135.000 C 32.279 135.000,32.500 135.075,32.500 135.167 C 32.500 135.258,32.618 135.333,32.762 135.333 C 34.261 135.333,36.772 138.570,37.509 141.453 C 37.688 142.151,37.853 142.736,37.875 142.752 C 37.926 142.787,41.469 142.600,47.250 142.257 C 49.633 142.116,51.815 142.000,52.099 142.000 L 52.615 142.000 52.228 143.448 C 51.783 145.113,51.233 148.328,51.072 150.206 L 50.961 151.496 50.439 151.206 C 50.152 151.047,49.879 150.879,49.833 150.833 C 49.753 150.753,49.574 150.648,48.435 150.012 C 47.652 149.575,44.791 148.447,42.917 147.837 C 42.000 147.538,41.100 147.239,40.917 147.170 C 40.132 146.878,39.373 146.667,39.111 146.667 C 38.956 146.667,38.699 146.598,38.539 146.514 C 37.934 146.194,33.936 145.208,29.333 144.243 C 27.232 143.803,24.717 143.067,24.425 142.807 C 24.338 142.730,24.132 142.667,23.967 142.667 C 23.802 142.667,23.667 142.592,23.667 142.500 C 23.667 142.408,23.588 142.333,23.493 142.333 C 23.126 142.333,21.999 141.091,21.732 140.394 C 21.185 138.959,21.802 137.038,23.129 136.047 C 23.470 135.792,23.775 135.527,23.806 135.458 C 23.836 135.390,24.005 135.333,24.181 135.333 C 24.356 135.333,24.500 135.258,24.500 135.167 C 24.500 135.075,24.683 135.000,24.907 135.000 C 25.131 135.000,25.360 134.925,25.417 134.833 C 25.479 134.733,26.665 134.667,28.417 134.667 C 30.168 134.667,31.354 134.733,31.417 134.833 M231.750 137.672 C 233.101 137.863,235.667 138.637,235.667 138.853 C 235.667 138.934,235.817 139.000,236.000 139.000 C 236.183 139.000,236.333 139.075,236.333 139.167 C 236.333 139.258,236.427 139.334,236.542 139.334 C 236.947 139.335,240.000 142.117,240.000 142.485 C 240.000 142.585,240.067 142.667,240.149 142.667 C 240.409 142.667,241.635 145.358,242.078 146.902 C 243.960 153.453,242.834 165.570,240.022 169.044 C 239.646 169.509,237.923 171.156,237.511 171.444 C 236.883 171.884,235.238 172.776,234.826 172.900 C 234.601 172.967,234.154 173.100,233.833 173.195 C 231.384 173.920,226.972 173.804,225.000 172.964 C 220.125 170.887,218.109 167.998,216.885 161.333 C 216.547 159.492,216.502 152.173,216.817 150.333 C 217.589 145.831,218.542 143.496,220.417 141.520 C 223.470 138.301,227.214 137.029,231.750 137.672 M320.680 137.978 C 322.136 138.355,323.266 138.846,324.333 139.566 C 325.461 140.325,326.135 140.950,327.412 142.417 C 330.992 146.530,331.407 161.400,328.120 167.742 C 327.124 169.664,324.066 172.500,322.991 172.500 C 322.904 172.500,322.833 172.575,322.833 172.667 C 322.833 172.758,322.650 172.833,322.427 172.833 C 322.203 172.833,321.973 172.908,321.917 173.000 C 321.860 173.092,321.608 173.167,321.357 173.167 C 321.106 173.167,320.829 173.235,320.742 173.319 C 320.246 173.797,314.268 173.793,313.758 173.315 C 313.671 173.234,313.426 173.167,313.214 173.167 C 313.002 173.167,312.699 173.098,312.539 173.014 C 312.380 172.929,311.875 172.696,311.417 172.496 C 308.472 171.206,306.247 168.523,305.108 164.892 C 303.317 159.178,303.692 149.095,305.872 144.355 C 306.651 142.660,308.835 140.153,310.102 139.499 C 310.367 139.362,310.621 139.209,310.667 139.159 C 311.014 138.775,313.344 137.940,315.000 137.606 C 315.900 137.424,319.438 137.656,320.680 137.978 " stroke="none" fill="#fbfbfb" fill-rule="evenodd"></path><path id="path2" d="M312.458 66.454 C 312.756 66.491,313.244 66.491,313.542 66.454 C 313.840 66.417,313.596 66.387,313.000 66.387 C 312.404 66.387,312.160 66.417,312.458 66.454 M307.833 67.750 C 307.604 67.881,307.492 67.988,307.583 67.988 C 307.675 67.988,307.938 67.881,308.167 67.750 C 308.396 67.619,308.508 67.512,308.417 67.512 C 308.325 67.512,308.063 67.619,307.833 67.750 M318.730 68.943 C 319.144 69.391,319.327 69.716,319.245 69.860 C 319.142 70.041,319.161 70.044,319.345 69.872 C 319.534 69.696,319.448 69.542,318.831 68.955 L 318.089 68.250 318.730 68.943 M302.078 71.875 L 301.083 72.917 302.125 71.922 C 302.698 71.375,303.167 70.906,303.167 70.880 C 303.167 70.757,303.002 70.907,302.078 71.875 M319.877 74.953 C 320.131 74.991,320.506 74.990,320.711 74.951 C 320.916 74.911,320.708 74.880,320.250 74.881 C 319.792 74.882,319.624 74.915,319.877 74.953 M307.375 78.615 C 307.535 78.657,307.798 78.657,307.958 78.615 C 308.119 78.573,307.987 78.539,307.667 78.539 C 307.346 78.539,307.215 78.573,307.375 78.615 M328.383 83.667 C 328.383 84.171,328.415 84.377,328.453 84.125 C 328.491 83.873,328.491 83.460,328.453 83.208 C 328.415 82.956,328.383 83.162,328.383 83.667 M305.458 86.289 C 305.848 86.324,306.485 86.324,306.875 86.289 C 307.265 86.254,306.946 86.225,306.167 86.225 C 305.387 86.225,305.069 86.254,305.458 86.289 M311.734 88.026 C 311.658 88.149,311.689 88.173,311.820 88.092 C 311.940 88.017,312.208 88.126,312.471 88.358 L 312.917 88.750 312.513 88.292 C 312.069 87.789,311.913 87.735,311.734 88.026 M315.625 89.951 C 315.831 89.991,316.169 89.991,316.375 89.951 C 316.581 89.911,316.412 89.879,316.000 89.879 C 315.587 89.879,315.419 89.911,315.625 89.951 M324.745 91.208 L 323.750 92.250 324.792 91.255 C 325.365 90.708,325.833 90.239,325.833 90.214 C 325.833 90.090,325.669 90.241,324.745 91.208 M261.226 97.250 C 261.225 98.075,261.254 98.434,261.288 98.047 C 261.323 97.660,261.324 96.985,261.289 96.547 C 261.255 96.109,261.226 96.425,261.226 97.250 M288.242 103.542 L 287.583 104.250 288.292 103.591 C 288.950 102.978,289.077 102.833,288.950 102.833 C 288.923 102.833,288.605 103.152,288.242 103.542 M285.742 105.875 L 285.083 106.583 285.792 105.925 C 286.450 105.312,286.577 105.167,286.450 105.167 C 286.423 105.167,286.105 105.485,285.742 105.875 M283.573 107.875 L 283.083 108.417 283.625 107.927 C 284.130 107.471,284.243 107.333,284.115 107.333 C 284.086 107.333,283.842 107.577,283.573 107.875 M300.500 108.250 C 300.095 108.662,299.801 109.000,299.847 109.000 C 299.893 109.000,300.262 108.662,300.667 108.250 C 301.072 107.837,301.365 107.500,301.319 107.500 C 301.274 107.500,300.905 107.837,300.500 108.250 M317.500 125.167 C 316.996 125.433,316.642 125.654,316.714 125.659 C 316.891 125.669,318.500 124.848,318.500 124.747 C 318.500 124.636,318.523 124.626,317.500 125.167 M293.629 130.289 C 294.021 130.324,294.621 130.324,294.963 130.288 C 295.304 130.252,294.983 130.223,294.250 130.224 C 293.517 130.224,293.237 130.254,293.629 130.289 M297.288 130.287 C 297.584 130.324,298.109 130.324,298.455 130.288 C 298.800 130.252,298.558 130.222,297.917 130.221 C 297.275 130.221,296.992 130.250,297.288 130.287 " stroke="none" fill="#a0a0a0" fill-rule="evenodd"></path><path id="path3" d="M302.000 71.750 C 301.595 72.162,301.301 72.500,301.347 72.500 C 301.393 72.500,301.762 72.162,302.167 71.750 C 302.572 71.337,302.865 71.000,302.819 71.000 C 302.774 71.000,302.405 71.337,302.000 71.750 M317.960 83.285 C 318.168 83.324,318.468 83.323,318.627 83.281 C 318.786 83.239,318.617 83.207,318.250 83.209 C 317.883 83.211,317.753 83.245,317.960 83.285 M300.833 84.417 C 301.144 84.737,301.436 85.000,301.482 85.000 C 301.528 85.000,301.311 84.737,301.000 84.417 C 300.689 84.096,300.397 83.833,300.351 83.833 C 300.305 83.833,300.522 84.096,300.833 84.417 M305.711 86.453 C 305.964 86.491,306.339 86.490,306.544 86.451 C 306.749 86.411,306.542 86.380,306.083 86.381 C 305.625 86.382,305.457 86.415,305.711 86.453 M319.573 88.208 L 319.083 88.750 319.625 88.260 C 320.130 87.804,320.243 87.667,320.115 87.667 C 320.086 87.667,319.842 87.910,319.573 88.208 M324.833 91.250 C 324.428 91.662,324.135 92.000,324.181 92.000 C 324.226 92.000,324.595 91.662,325.000 91.250 C 325.405 90.837,325.699 90.500,325.653 90.500 C 325.607 90.500,325.238 90.837,324.833 91.250 M261.539 101.667 C 261.539 101.987,261.573 102.119,261.615 101.958 C 261.657 101.798,261.657 101.535,261.615 101.375 C 261.573 101.215,261.539 101.346,261.539 101.667 M287.575 104.042 L 286.917 104.750 287.625 104.091 C 288.284 103.478,288.410 103.333,288.284 103.333 C 288.257 103.333,287.938 103.652,287.575 104.042 M290.500 104.083 C 290.811 104.404,291.103 104.667,291.149 104.667 C 291.195 104.667,290.978 104.404,290.667 104.083 C 290.356 103.763,290.064 103.500,290.018 103.500 C 289.972 103.500,290.189 103.763,290.500 104.083 M285.158 106.292 L 284.583 106.917 285.208 106.342 C 285.790 105.808,285.910 105.667,285.783 105.667 C 285.755 105.667,285.474 105.948,285.158 106.292 M299.294 130.118 C 299.501 130.158,299.801 130.156,299.960 130.115 C 300.120 130.073,299.950 130.040,299.583 130.042 C 299.217 130.044,299.086 130.078,299.294 130.118 " stroke="none" fill="#747474" fill-rule="evenodd"></path><path id="path4" d="M290.875 112.948 C 291.035 112.990,291.298 112.990,291.458 112.948 C 291.619 112.906,291.487 112.872,291.167 112.872 C 290.846 112.872,290.715 112.906,290.875 112.948 " stroke="none" fill="#7c7c7c" fill-rule="evenodd"></path></g></svg>